# xmcd
# Track frame offsets:
# 150
# 13035
# 26567
# 36720
# 50655
# 63615
#
# Disc length: 1084 seconds
# Revision: 0
# Processed by: cddbd v1.5.1PL0 Copyright (c) Steve Scherf et al.
# Submitted via: VisiTrax 2.9.10.228 - For more info visit www.synapsa.com
#
DISCID=54043a06
DTITLE=Ray Pennington - Let's swing
DYEAR=2005
DGENRE=
TTITLE0=Turn me loose and let me swing
TTITLE1=The memories that last
TTITLE2=The next big thing
TTITLE3=Five fingers
TTITLE4=Where I'm concerned
TTITLE5=So many ways to say goodbye
EXTD=
EXTT0=
EXTT1=
EXTT2=
EXTT3=
EXTT4=
EXTT5=
PLAYORDER=
